<?xml version="1.0" encoding="UTF-8"?>
<svg width="52px" height="52px" viewBox="0 0 52 52" version="1.1" xmlns="http://www.w3.org/2000/svg" xmlns:xlink="http://www.w3.org/1999/xlink">
    <!-- Generator: Sketch 51.2 (57519) - http://www.bohemiancoding.com/sketch -->
    <title>info</title>
    <desc>Created with Sketch.</desc>
    <defs></defs>
    <g id="Page-1" stroke="none" stroke-width="1" fill="none" fill-rule="evenodd">
        <g id="info" fill="#FAFAFA" fill-rule="nonzero">
            <path d="M26,0 C11.663,0 0,11.663 0,26 C0,40.337 11.663,52 26,52 C40.337,52 52,40.337 52,26 C52,11.663 40.337,0 26,0 Z M26,50 C12.767,50 2,39.233 2,26 C2,12.767 12.767,2 26,2 C39.233,2 50,12.767 50,26 C50,39.233 39.233,50 26,50 Z" id="Shape"></path>
            <path d="M26,37 C25.447,37 25,37.447 25,38 L25,40 C25,40.553 25.447,41 26,41 C26.553,41 27,40.553 27,40 L27,38 C27,37.447 26.553,37 26,37 Z" id="Shape"></path>
            <path d="M26.113,9.001 C26.075,9.001 26.037,9 25.998,9 C23.882,9 21.892,9.815 20.383,11.304 C18.847,12.819 18,14.842 18,17 C18,17.553 18.447,18 19,18 C19.553,18 20,17.553 20,17 C20,15.382 20.635,13.864 21.787,12.728 C22.94,11.591 24.475,10.963 26.086,11.001 C29.247,11.045 31.955,13.753 31.999,16.914 C32.028,18.998 31,20.916 29.248,22.046 C26.588,23.762 25,26.794 25,30.158 L25,33 C25,33.553 25.447,34 26,34 C26.553,34 27,33.553 27,33 L27,30.158 C27,27.516 28.276,25.053 30.332,23.726 C32.667,22.22 34.038,19.663 33.999,16.886 C33.939,12.599 30.401,9.061 26.113,9.001 Z" id="Shape"></path>
        </g>
    </g>
</svg>