<?xml version="1.0" encoding="UTF-8"?>
<svg width="449px" height="481px" viewBox="0 0 449 481" version="1.1" xmlns="http://www.w3.org/2000/svg" xmlns:xlink="http://www.w3.org/1999/xlink">
    <!-- Generator: Sketch 51.2 (57519) - http://www.bohemiancoding.com/sketch -->
    <title>exploration</title>
    <desc>Created with Sketch.</desc>
    <defs></defs>
    <g id="Page-1" stroke="none" stroke-width="1" fill="none" fill-rule="evenodd">
        <g id="exploration" fill="#DCDCDC" fill-rule="nonzero">
            <path d="M447.462,171.742 C435.063,151.898 420.177,133.721 403.168,117.652 L439.399,86.031 L428.883,73.968 L391.081,106.96 C372.79,91.831 352.436,79.386 330.633,70 L351.844,27.578 L337.532,20.422 L315.697,64.091 C289.461,54.767 261.963,49.471 234.141,48.385 L234.141,0 L218.141,0 L218.141,48.074 C189.103,48.086 160.267,52.908 132.805,62.344 L111.844,20.422 L97.531,27.578 L117.834,68.184 C97.557,76.933 78.632,88.53 61.63,102.625 L22.938,73.602 L13.344,86.399 L49.382,113.43 C31.139,130.765 15.187,150.362 1.915,171.743 C0.282,174.347 0.282,177.655 1.915,180.259 C21.44,211.794 47.359,238.886 77.999,259.787 C44.612,341.603 83.871,434.994 165.688,468.381 C247.504,501.768 340.895,462.509 374.282,380.692 C390.087,341.961 390.096,298.58 374.305,259.842 C380.124,255.686 385.864,251.317 391.353,246.602 C413.268,227.418 432.182,205.054 447.462,180.258 C449.094,177.654 449.094,174.346 447.462,171.742 Z M82.546,328 L138.356,328 C138.814,353.93 143.102,379.651 151.08,404.327 C138.179,405.875 125.82,407.859 114.065,410.205 C95.186,386.794 84.158,358.032 82.546,328 Z M151.081,235.673 C143.102,260.35 138.815,286.07 138.357,312 L82.547,312 C84.159,281.968 95.187,253.206 114.066,229.794 C125.82,232.141 138.179,234.124 151.081,235.673 Z M126.877,215.943 C141.869,201.625 159.776,190.712 179.373,183.95 C170.03,194.779 162.462,207.019 156.951,220.217 C146.585,219.05 136.52,217.635 126.877,215.943 Z M126.877,424.057 C136.519,422.365 146.585,420.95 156.952,419.783 C162.463,432.981 170.031,445.222 179.374,456.051 C159.777,449.288 141.87,438.375 126.877,424.057 Z M218.141,463.001 C201.017,459.01 185.538,442.401 174.072,418.127 C188.358,416.956 203.107,416.272 218.141,416.092 L218.141,463.001 Z M218.141,400.092 C200.887,400.294 183.961,401.129 167.663,402.604 C159.384,378.577 154.893,353.408 154.351,328 L218.141,328 L218.141,400.092 Z M218.141,312 L154.351,312 C154.893,286.592 159.384,261.423 167.663,237.396 C183.961,238.872 200.887,239.706 218.141,239.908 L218.141,312 Z M218.141,223.909 C203.107,223.729 188.358,223.045 174.072,221.874 C185.538,197.6 201.017,180.991 218.141,176.999 L218.141,223.909 Z M234.141,463.001 L234.141,416.091 C249.175,416.271 263.924,416.955 278.21,418.126 C266.744,442.401 251.265,459.01 234.141,463.001 Z M278.21,221.874 C263.924,223.045 249.175,223.729 234.141,223.909 L234.141,176.999 C251.265,180.99 266.744,197.599 278.21,221.874 Z M272.909,183.95 C292.506,190.712 310.413,201.625 325.406,215.943 C315.764,217.635 305.698,219.05 295.332,220.217 C289.82,207.02 282.252,194.779 272.909,183.95 Z M284.619,237.396 C292.898,261.423 297.389,286.592 297.931,312 L234.141,312 L234.141,239.908 C251.396,239.706 268.321,238.872 284.619,237.396 Z M297.931,328 C297.389,353.408 292.898,378.577 284.619,402.604 C268.321,401.128 251.395,400.294 234.141,400.092 L234.141,328 L297.931,328 Z M272.908,456.05 C282.251,445.221 289.819,432.98 295.33,419.782 C305.696,420.949 315.762,422.364 325.404,424.056 C310.412,438.375 292.506,449.288 272.908,456.05 Z M338.217,410.206 C326.461,407.859 314.103,405.876 301.202,404.328 C309.181,379.651 313.468,353.931 313.926,328.001 L369.736,328.001 C368.124,358.032 357.096,386.794 338.217,410.206 Z M313.926,312 C313.468,286.07 309.18,260.349 301.202,235.673 C314.103,234.125 326.462,232.141 338.217,229.795 C357.096,253.207 368.124,281.969 369.736,312.001 L313.926,312.001 L313.926,312 Z M380.93,234.461 C376.564,238.214 372.024,241.719 367.429,245.096 C359.507,230.253 349.304,216.746 337.194,205.068 C337.775,200.735 338.091,196.372 338.142,192 C338.132,130.134 287.972,79.99 226.106,80 C180.896,80.007 140.122,107.191 122.728,148.922 L137.494,155.078 C157.82,106.181 213.936,83.019 262.833,103.344 C265.508,104.456 268.131,105.688 270.694,107.038 C259.081,113.351 254.784,127.884 261.098,139.497 C267.411,151.11 281.944,155.407 293.557,149.093 C298.551,146.378 302.416,141.974 304.46,136.67 C315.963,152.826 322.144,172.167 322.143,192 L322.13,192.293 C265.382,149.235 186.904,149.235 130.156,192.293 L130.141,192 C130.138,184.537 131.001,177.1 132.711,169.836 L117.133,166.164 C115.141,174.632 114.137,183.301 114.141,192 C114.192,196.371 114.508,200.735 115.089,205.067 C102.971,216.753 92.765,230.269 84.841,245.122 C58.347,226.623 35.708,203.143 18.188,175.992 C67.086,100.648 133.399,64 220.758,64 C309.383,64 383.906,103.727 431.188,176.008 C417.294,197.778 400.371,217.46 380.93,234.461 Z M290.141,128 C290.141,132.418 286.559,136 282.141,136 C277.723,136 274.141,132.418 274.141,128 C274.141,123.582 277.723,120 282.141,120 C286.558,120.003 290.138,123.583 290.141,128 Z" id="Shape"></path>
        </g>
    </g>
</svg>