<?xml version="1.0" encoding="UTF-8"?>
<svg width="59px" height="59px" viewBox="0 0 59 59" version="1.1" xmlns="http://www.w3.org/2000/svg" xmlns:xlink="http://www.w3.org/1999/xlink">
    <!-- Generator: Sketch 51.2 (57519) - http://www.bohemiancoding.com/sketch -->
    <title>home</title>
    <desc>Created with Sketch.</desc>
    <defs></defs>
    <g id="Page-1" stroke="none" stroke-width="1" fill="none" fill-rule="evenodd">
        <g id="home" fill="#FAFAFA" fill-rule="nonzero">
            <path d="M57.863,26.632 L49.182,18.571 L49.182,5.365 L39.182,5.365 L39.182,9.286 L29.182,0 L0.502,26.632 C0.098,27.008 0.074,27.641 0.45,28.046 C0.825,28.45 1.458,28.473 1.864,28.098 L5.183,25.016 L5.183,58.365 L21.183,58.365 L37.183,58.365 L53.183,58.365 L53.183,25.015 L56.502,28.097 C56.694,28.276 56.939,28.364 57.183,28.364 C57.452,28.364 57.719,28.257 57.915,28.045 C58.291,27.641 58.267,27.008 57.863,26.632 Z M41.182,7.365 L47.182,7.365 L47.182,16.714 L41.182,11.143 L41.182,7.365 Z M23.182,56.365 L23.182,35.302 C23.182,34.785 23.602,34.365 24.119,34.365 L34.245,34.365 C34.762,34.365 35.182,34.785 35.182,35.302 L35.182,56.365 L23.182,56.365 Z M51.182,56.365 L37.182,56.365 L37.182,35.302 C37.182,33.682 35.865,32.365 34.245,32.365 L24.119,32.365 C22.499,32.365 21.182,33.682 21.182,35.302 L21.182,56.365 L7.182,56.365 L7.182,23.158 L29.182,2.729 L43.462,15.989 L49.182,21.3 L51.182,23.157 L51.182,56.365 Z" id="Shape"></path>
        </g>
    </g>
</svg>